<?xml version="1.0" encoding="UTF-8"?>
<!DOCTYPE svg PUBLIC "-//W3C//DTD SVG 1.1//EN" "http://www.w3.org/Graphics/SVG/1.1/DTD/svg11.dtd">
<!-- Creator: CorelDRAW X7 -->
<svg xmlns="http://www.w3.org/2000/svg" xml:space="preserve" width="2480px" height="3508px" version="1.1" style="shape-rendering:geometricPrecision; text-rendering:geometricPrecision; image-rendering:optimizeQuality; fill-rule:evenodd; clip-rule:evenodd"
viewBox="0 0 2480 3507"
 xmlns:xlink="http://www.w3.org/1999/xlink">
 <defs>
  <style type="text/css">
   <![CDATA[
    .str5 {stroke:#373435;stroke-width:11.8095}
    .str4 {stroke:#373435;stroke-width:11.8095}
    .str3 {stroke:#FFF212;stroke-width:11.8095}
    .str0 {stroke:#CB7246;stroke-width:5.90476}
    .str1 {stroke:#00AFEF;stroke-width:5.90476}
    .str2 {stroke:#373435;stroke-width:2.3619}
    .fil9 {fill:none}
    .fil7 {fill:#FEFEFE}
    .fil13 {fill:#373435}
    .fil14 {fill:#FFF212}
    .fil6 {fill:#ED3237}
    .fil4 {fill:#DDD335}
    .fil0 {fill:#DDD335}
    .fil11 {fill:url(#id6)}
    .fil12 {fill:url(#id7)}
    .fil3 {fill:url(#id8)}
    .fil10 {fill:url(#id9)}
    .fil8 {fill:url(#id10)}
    .fil2 {fill:url(#id11)}
    .fil1 {fill:url(#id12)}
    .fil5 {fill:url(#id13)}
   ]]>
  </style>
      <mask id="id0">
  <linearGradient id="id1" gradientUnits="userSpaceOnUse" x1="2060.72" y1="651.542" x2="2060.72" y2="670.173">
   <stop offset="0" style="stop-opacity:1; stop-color:white"/>
   <stop offset="1" style="stop-opacity:0; stop-color:white"/>
  </linearGradient>
       <rect style="fill:url(#id1)" x="1266" y="506" width="1590" height="311"/>
      </mask>
       <mask id="id2">
  <linearGradient id="id3" gradientUnits="userSpaceOnUse" x1="457.99" y1="660.299" x2="457.99" y2="678.93">
   <stop offset="0" style="stop-opacity:1; stop-color:white"/>
   <stop offset="1" style="stop-opacity:0; stop-color:white"/>
  </linearGradient>
        <rect style="fill:url(#id3)" x="-337" y="514" width="1590" height="311"/>
       </mask>
      <mask id="id4">
  <linearGradient id="id5" gradientUnits="userSpaceOnUse" x1="1247.61" y1="587.383" x2="1250.91" y2="646.544">
   <stop offset="0" style="stop-opacity:1; stop-color:white"/>
   <stop offset="0.278431" style="stop-opacity:-52.2078; stop-color:white"/>
   <stop offset="1" style="stop-opacity:0; stop-color:white"/>
  </linearGradient>
       <rect style="fill:url(#id5)" x="965" y="262" width="568" height="710"/>
      </mask>
  <linearGradient id="id6" gradientUnits="userSpaceOnUse" x1="2296.13" y1="2446.32" x2="249.514" y2="2446.32">
   <stop offset="0" style="stop-opacity:1; stop-color:#00AFEF"/>
   <stop offset="0.501961" style="stop-opacity:1; stop-color:#FEFEFE"/>
   <stop offset="1" style="stop-opacity:1; stop-color:#00AFEF"/>
  </linearGradient>
  <linearGradient id="id7" gradientUnits="userSpaceOnUse" xlink:href="#id6" x1="247.952" y1="2995.51" x2="2297.69" y2="2995.51">
  </linearGradient>
  <radialGradient id="id8" gradientUnits="userSpaceOnUse" gradientTransform="matrix(0.0496156 1.06071 -1.06072 0.0496158 2205 -448)" cx="1267.44" cy="943.524" r="625.881" fx="1267.44" fy="943.524">
   <stop offset="0" style="stop-opacity:1; stop-color:#FEFEFE"/>
   <stop offset="1" style="stop-opacity:1; stop-color:#FFF212"/>
  </radialGradient>
  <radialGradient id="id9" gradientUnits="userSpaceOnUse" gradientTransform="matrix(1.32206 -0 -0 1.32206 -157 -589)" cx="486.64" cy="1829.26" r="651.18" fx="486.64" fy="1829.26">
   <stop offset="0" style="stop-opacity:1; stop-color:#FEFEFE"/>
   <stop offset="1" style="stop-opacity:1; stop-color:#F5874F"/>
  </radialGradient>
  <radialGradient id="id10" gradientUnits="userSpaceOnUse" gradientTransform="matrix(1.32206 -0 -0 1.32206 -677 -589)" xlink:href="#id9" cx="2101.44" cy="1829.61" r="651.18" fx="2101.44" fy="1829.61">
  </radialGradient>
  <radialGradient id="id11" gradientUnits="userSpaceOnUse" gradientTransform="matrix(0.0110779 -0.941915 0.94192 0.0110779 -194 1465)" xlink:href="#id8" cx="637.026" cy="874.829" r="794.9" fx="637.026" fy="874.829">
  </radialGradient>
  <radialGradient id="id12" gradientUnits="userSpaceOnUse" gradientTransform="matrix(-0.0110779 -0.941916 0.941921 -0.011078 1427 2965)" xlink:href="#id8" cx="2218.5" cy="866.073" r="794.9" fx="2218.5" fy="866.073">
  </radialGradient>
  <radialGradient id="id13" gradientUnits="userSpaceOnUse" gradientTransform="matrix(-0.0636455 -2.12229 2.20859 -0.0611589 -746 3648)" xlink:href="#id8" cx="1249.26" cy="939.514" r="355.086" fx="1249.26" fy="939.514">
  </radialGradient>
 </defs>
 <g id="Layer_x0020_1">
  <metadata id="CorelCorpID_0Corel-Layer"/>
  <g id="_2308318066768">
   <g>
    <g>
     <path class="fil0" style="mask:url(#id0)" d="M2121 797c-169,-27 -271,-31 -390,-34 -239,-7 -465,4 -465,-48 0,-79 439,-283 801,-182 362,100 789,182 789,182 0,0 -302,153 -735,82z"/>
     <path class="fil1" d="M2108 785c-163,-26 -261,-30 -375,-33 -231,-6 -448,4 -448,-46 0,-76 423,-272 771,-176 348,97 760,176 760,176 0,0 -291,147 -708,79z"/>
     <path class="fil0" d="M1961 1075c-629,-107 -710,-101 -1387,-12 213,-162 439,-324 677,-369 265,43 506,216 710,381z"/>
     <g>
      <path class="fil0" style="mask:url(#id2)" d="M398 806c169,-27 271,-31 390,-35 239,-6 465,5 465,-47 0,-79 -440,-283 -801,-182 -362,100 -789,182 -789,182 0,0 302,153 735,82z"/>
      <path class="fil2" d="M411 794c163,-26 261,-30 375,-33 230,-7 448,4 448,-46 0,-76 -423,-272 -771,-176 -349,97 -760,176 -760,176 0,0 291,147 708,79z"/>
     </g>
     <path class="fil3" d="M1893 1064c-567,-97 -640,-92 -1251,-12 192,-145 396,-291 611,-332 239,39 456,194 640,344z"/>
     <path class="fil4" style="mask:url(#id4)" d="M1253 262c183,4 106,152 159,236 39,60 74,48 99,125 52,158 31,347 -258,349 -289,2 -320,-192 -265,-349 25,-73 61,-72 98,-125 56,-81 -26,-241 167,-236z"/>
     <path class="fil5" d="M1253 281c173,4 100,144 151,223 36,58 69,46 93,119 49,149 29,328 -244,330 -273,2 -303,-182 -251,-330 24,-69 58,-68 93,-119 52,-76 -24,-227 158,-223z"/>
     <g>
      <polygon class="fil6" points="1320,499 1166,499 1243,576 "/>
      <polygon class="fil7" points="1272,523 1213,523 1243,552 "/>
     </g>
     <path class="fil8 str0" d="M2285 2476c115,-70 218,-101 350,-125 27,-5 29,-1 9,-18 -192,-161 -283,-398 -427,-595 -30,-72 -71,-130 -132,-174l-326 -315c-15,-9 -46,-6 -46,3l-48 -59c-15,-27 -54,-8 -47,1 -1,-24 -49,-21 -48,14 -17,-7 -29,7 -23,23 42,122 115,205 172,306 9,16 45,116 49,133 -20,-27 -59,-66 -68,-35 10,19 3,108 7,119 59,149 130,217 287,224 238,215 195,181 278,492 4,14 1,13 13,6z"/>
     <path class="fil9 str0" d="M2098 1950c-36,-63 -59,-127 -51,-211"/>
     <path class="fil9 str0" d="M1768 1670c18,83 78,121 117,181"/>
     <path class="fil9 str0" d="M2149 2064c-8,-48 66,-36 100,-43"/>
     <path class="fil9 str0" d="M1781 1610c21,-29 122,-41 166,-55 -67,-106 -249,-224 -234,-303"/>
     <path class="fil9 str0" d="M1878 1571c-3,-4 -40,-79 -42,-80 -59,-68 -222,-197 -218,-297"/>
     <path class="fil9 str0" d="M1571 1204c-10,71 157,251 201,313 8,11 25,51 39,73"/>
     <path class="fil9 str0" d="M1800 1743c10,29 7,49 -7,64"/>
     <path class="fil10 str0" d="M303 2475c-114,-69 -218,-100 -350,-125 -27,-5 -29,0 -9,-17 192,-161 283,-398 427,-595 30,-72 71,-130 132,-175l327 -315c14,-9 45,-6 45,4l49 -59c14,-28 53,-9 46,0 1,-23 49,-20 48,15 17,-7 29,6 23,23 -42,122 -115,205 -172,305 -9,17 -45,117 -49,134 20,-27 59,-66 68,-35 -10,19 -3,107 -7,119 -59,149 -130,216 -286,224 -239,214 -196,181 -279,491 -4,14 -1,14 -13,6z"/>
     <path class="fil9 str0" d="M490 1950c36,-63 59,-127 51,-211"/>
     <path class="fil9 str0" d="M820 1670c-18,83 -78,121 -117,181"/>
     <path class="fil9 str0" d="M439 2064c8,-48 -65,-37 -100,-43"/>
     <path class="fil9 str0" d="M807 1609c-21,-28 -122,-41 -166,-55 67,-105 249,-223 234,-302"/>
     <path class="fil9 str0" d="M710 1571c3,-5 40,-79 42,-81 59,-67 222,-196 218,-297"/>
     <path class="fil9 str0" d="M1018 1204c9,70 -158,250 -202,313 -7,10 -24,51 -39,73"/>
     <path class="fil9 str0" d="M789 1743c-11,29 -8,49 6,64"/>
    </g>
    <line class="fil9 str1" x1="1078" y1="1425" x2="1165" y2= "1100" />
    <line class="fil9 str1" x1="1037" y1="1807" x2="1066" y2= "1570" />
    <line class="fil9 str1" x1="1177" y1="1726" x2="1200" y2= "1529" />
    <line class="fil9 str1" x1="1582" y1="1877" x2="1513" y2= "1639" />
    <line class="fil9 str1" x1="1310" y1="1506" x2="1321" y2= "1303" />
    <line class="fil9 str1" x1="1200" y1="1338" x2="1258" y2= "1094" />
    <line class="fil9 str1" x1="1420" y1="1176" x2="1404" y2= "1039" />
    <line class="fil9 str1" x1="1282" y1="1832" x2="1290" y2= "1672" />
    <line class="fil9 str1" x1="1432" y1="1650" x2="1410" y2= "1271" />
   </g>
   <g>
    <polygon class="fil11 str2" points="250,2846 2296,2846 1781,2046 766,2046 "/>
    <rect class="fil12 str2" x="248" y="2849" width="2050" height="294"/>
    <g>
     <path class="fil13" d="M2115 2756l-696 -53c-95,78 -195,79 -293,0l-695 53 421 -609 842 0 421 609z"/>
     <path class="fil14 str3" d="M656 2633l540 -32c54,42 107,40 153,0l540 31 -210 -445 -812 0 -211 446z"/>
     <path class="fil7 str4" d="M762 2560c166,-29 455,-85 510,65 1,2 2,2 3,-1 57,-142 350,-95 509,-64l-156 -433c-100,14 -262,-19 -355,35 -93,-53 -242,-21 -355,-35l-156 433z"/>
     <line class="fil9 str5" x1="1272" y1="2159" x2="1274" y2= "2627" />
     <line class="fil9 str5" x1="638" y1="2646" x2="762" y2= "2560" />
     <line class="fil9 str5" x1="1784" y1="2560" x2="1924" y2= "2656" />
    </g>
   </g>
  </g>
 </g>
</svg>
